<?xml version="1.0" encoding="utf-8"?>
<!-- Generator: Adobe Illustrator 27.0.0, SVG Export Plug-In . SVG Version: 6.00 Build 0)  -->
<svg version="1.1" xmlns="http://www.w3.org/2000/svg" xmlns:xlink="http://www.w3.org/1999/xlink" x="0px" y="0px"
	 viewBox="0 0 635 85" style="enable-background:new 0 0 635 85;" xml:space="preserve">
<style type="text/css">
	.st0{display:none;}
	.st1{display:inline;opacity:0.2;fill:#FF00FF;}
	.st2{fill:#FFFFFF;}
	.st3{fill:#FF3250;}
	.st4{fill:#C3A0FF;}
	.st5{fill:#1EF56E;}
	.st6{fill:#00FFFA;}
</style>
<g id="Guides" class="st0">
	<path class="st1" d="M633.85,83.71V1.28h6.65c13.69,0,26.52,6.67,34.38,17.89l9.83,14.03V21.16c0-10.98,8.9-19.88,19.88-19.88
		h11.68v82.43h-6.65c-13.69,0-26.53-6.68-34.39-17.89l-9.83-14.02v12.03c0,10.98-8.9,19.88-19.88,19.88H633.85z"/>
	<path class="st1" d="M1.14,83.71h-82.43v-6.65c0-13.69,6.67-26.52,17.89-34.38l14.03-9.83h-12.03c-10.98,0-19.88-8.9-19.88-19.88
		V1.28H1.14v6.65c0,13.69-6.68,26.53-17.89,34.39l-14.02,9.83h12.03c10.98,0,19.88,8.9,19.88,19.88V83.71z"/>
	<path class="st1" d="M1.1,166.08l0-82.43h6.65c13.69,0,26.52,6.67,34.38,17.89l9.83,14.03v-12.03c0-10.98,8.9-19.88,19.88-19.88
		h11.68v82.43h-6.65c-13.69,0-26.53-6.68-34.39-17.89l-9.83-14.02v12.03c0,10.98-8.9,19.88-19.88,19.88H1.1z"/>
	<path class="st1" d="M1.1,1.33l0-82.43h6.65c13.69,0,26.52,6.67,34.38,17.89l9.83,14.03v-12.03c0-10.98,8.9-19.88,19.88-19.88
		h11.68V1.33h-6.65c-13.69,0-26.53-6.68-34.39-17.89l-9.83-14.02v12.03c0,10.98-8.9,19.88-19.88,19.88H1.1z"/>
</g>
<g id="Layer_1">
	<g>
		<path class="st6" d="M444.85,1.29v82.43h-6.65c-13.69,0-26.52-6.67-34.38-17.89l-9.83-14.03v12.03c0,10.98-8.9,19.88-19.88,19.88
			h-11.68V1.29h6.65c13.69,0,26.53,6.68,34.39,17.89l9.83,14.02V21.17c0-10.98,8.9-19.88,19.88-19.88H444.85z"/>
		<path class="st6" d="M455.37,29.55V1.29h78.89v28.26h-22.14v19.43c0,24.09-15.55,34.73-34.73,34.73h0V29.55H455.37z"/>
		<path class="st6" d="M587.49,0.52c-27.8,0-46.41,16.23-46.41,41.98c0,25.76,18.61,41.98,46.41,41.98
			c27.8,0,46.41-16.23,46.41-41.98C633.9,16.74,615.29,0.52,587.49,0.52z M587.49,54.45h-11.95V42.5c0-6.6,5.35-11.95,11.95-11.95
			c6.6,0,11.95,5.35,11.95,11.95S594.09,54.45,587.49,54.45z"/>
		<path class="st6" d="M83.53,1.29v82.43h-6.65c-13.69,0-26.52-6.67-34.38-17.89L32.66,51.8v12.03c0,10.98-8.9,19.88-19.88,19.88
			H1.1V1.29h6.65c13.69,0,26.53,6.68,34.39,17.89l9.83,14.02V21.17c0-10.98,8.9-19.88,19.88-19.88H83.53z"/>
		<path class="st6" d="M133.8,83.76c-24.87,0-39.08-14.44-39.08-35.64V1.24h33.81v42.71c0,2.94,2.39,5.33,5.33,5.33h0
			c2.94,0,5.33-2.39,5.33-5.33V1.24H173v82.52C173,83.76,158.79,83.76,133.8,83.76z"/>
		<path class="st6" d="M181.64,1.29h18.21c11.12,0,20.83,7.5,23.65,18.26l0.06,0.23c2.12,8.01,4.12,15.54,6.24,22.84
			c2-7.3,3.89-14.72,6.13-22.73l0.21-0.75c2.97-10.56,12.6-17.86,23.57-17.86h18.14l-31.56,82.43H213.2L181.64,1.29z"/>
		<path class="st6" d="M286.64,1.29h64.53v23.55h-25.34c-2.46,0-4.45,1.99-4.45,4.45v0c0,2.46,1.99,4.45,4.45,4.45h18.74v16.92
			h-18.45c-2.62,0-4.75,2.13-4.75,4.75v0c0,2.62,2.13,4.75,4.75,4.75h25.04v23.55h-64.53V1.29z"/>
	</g>
</g>
</svg>
